<svg width="89" height="90" viewBox="0 0 89 90" fill="none" xmlns="http://www.w3.org/2000/svg">
<path d="M11.663 0.307042C12.0417 0.2287 12.6614 0.132949 13.0401 0.0894256C13.4189 0.0546069 27.3369 0.0110836 43.9577 0.00237888C72.7149 -0.00632579 74.1954 0.00237888 74.1523 0.141654C74.1351 0.2287 71.7853 7.97586 68.9449 17.3595C66.0958 26.7431 63.7805 34.4555 63.7977 34.499C63.8149 34.5425 64.3658 33.8374 65.0285 32.9322C65.6827 32.0269 66.5951 30.7734 67.0513 30.1554C67.5075 29.5286 69.3925 26.9433 71.2344 24.4103C73.085 21.8685 76.1751 17.6206 78.1117 14.9657C80.0484 12.3108 82.6564 8.72446 83.9131 7.00094C85.1611 5.27741 86.8051 3.03161 87.554 2.01316C88.3028 1.00342 88.9311 0.159063 88.957 0.141654C88.9828 0.132949 89 17.4117 89 38.5293C89 64.5127 88.9742 77.1606 88.9139 77.6132C88.8623 77.9875 88.7848 78.5098 88.7332 78.771C88.6815 79.0321 88.5438 79.5979 88.4233 80.0331C88.3028 80.4684 88.0446 81.1909 87.8638 81.6435C87.6745 82.0962 87.3818 82.7229 87.2183 83.0363C87.0461 83.3496 86.6674 83.9502 86.3834 84.3768C86.0907 84.8033 85.4882 85.5432 85.0406 86.022C84.593 86.5007 83.8528 87.171 83.4052 87.5105C82.9576 87.8586 82.1572 88.3548 81.6407 88.6247C81.1243 88.8858 80.384 89.2166 80.0053 89.3472C79.6266 89.4777 78.9466 89.6692 78.499 89.765C77.6912 89.9475 77.5184 89.9478 47.9999 89.9997L47.8569 90L47.8999 89.7998C47.9171 89.6953 48.8037 86.5704 49.871 82.8622C50.9297 79.154 53.0643 71.6941 54.6136 66.2798C56.1544 60.8655 57.9705 54.5459 58.6333 52.2217C59.296 49.8976 60.0277 47.3558 60.2515 46.5637C60.4752 45.7716 61.2929 42.9338 62.059 40.2528C62.8164 37.5718 63.4276 35.3346 63.419 35.2911C63.4018 35.2476 60.2687 39.2169 56.4642 44.1264C52.6598 49.0358 46.7723 56.6176 43.381 60.9786L41.8721 62.924C38.1856 67.6769 31.876 75.8118 20.8728 89.9913L0 90V52.5264C0 26.7692 0.025821 14.7916 0.0946788 14.1997C0.137716 13.7384 0.258221 12.9636 0.352899 12.4849C0.447578 12.0061 0.679978 11.1444 0.86934 10.5699C1.0587 9.99534 1.42882 9.07265 1.68704 8.52425C1.95386 7.97586 2.41005 7.14892 2.7027 6.69627C2.99536 6.24363 3.53762 5.50373 3.89913 5.05979C4.26064 4.62456 4.92341 3.9456 5.35377 3.55389C5.79275 3.17088 6.49855 2.61378 6.92892 2.32653C7.35928 2.03927 8.09091 1.61274 8.56431 1.38642C9.03772 1.1514 9.76934 0.846732 10.1997 0.698753C10.6301 0.559478 11.2842 0.385384 11.663 0.307042Z" fill="#D9D9D9"/>
</svg>
