<svg width="178" height="20" viewBox="0 0 178 20" fill="none" xmlns="http://www.w3.org/2000/svg">
<path fill-rule="evenodd" clip-rule="evenodd" d="M145.855 2.41185C145.844 2.42281 145.597 2.44473 145.312 2.46117C145.027 2.48309 144.567 2.53789 144.299 2.58173C144.03 2.63105 143.657 2.70777 143.477 2.75161C143.296 2.79545 142.912 2.91053 142.627 3.00368C142.342 3.09683 141.849 3.29411 141.531 3.44207C141.213 3.59002 140.72 3.86949 140.435 4.05581C140.15 4.2476 139.75 4.549 139.553 4.72435C139.356 4.8997 139.06 5.19562 138.901 5.37646C138.742 5.55729 138.479 5.90252 138.32 6.14363C138.161 6.38475 137.942 6.77929 137.832 7.02041C137.723 7.26152 137.569 7.66703 137.498 7.92458C137.427 8.18213 137.334 8.58764 137.29 8.82876C137.251 9.06987 137.213 9.60141 137.213 10.0069C137.213 10.4124 137.246 10.9714 137.29 11.2399C137.334 11.5139 137.421 11.9194 137.482 12.1441C137.542 12.3687 137.734 12.851 137.909 13.2126C138.084 13.5743 138.375 14.0675 138.556 14.3086C138.737 14.5497 139.12 14.9662 139.4 15.2347C139.685 15.5032 140.139 15.8704 140.408 16.0457C140.676 16.2211 141.126 16.4786 141.394 16.6101C141.663 16.7417 142.096 16.928 142.353 17.0211C142.611 17.1143 143.055 17.2513 143.34 17.3225C143.625 17.3938 144.096 17.4979 144.381 17.5472C144.742 17.6075 145.312 17.6458 146.244 17.6568C146.984 17.6677 147.734 17.6513 147.915 17.6239C148.096 17.5965 148.419 17.5472 148.628 17.5143C148.836 17.476 149.296 17.3773 149.641 17.2842C149.987 17.1965 150.518 17.0211 150.82 16.9006C151.121 16.7745 151.526 16.5882 151.724 16.4841C151.921 16.3745 152.299 16.1389 152.568 15.958C152.842 15.7717 153.258 15.4374 153.494 15.2128C153.735 14.9881 154.086 14.5936 154.283 14.336C154.475 14.0785 154.754 13.6236 154.902 13.3222C155.05 13.0208 155.231 12.5879 155.308 12.3633C155.384 12.1386 155.483 11.7331 155.532 11.4591C155.582 11.1906 155.631 10.6207 155.642 10.1987C155.653 9.71101 155.631 9.2507 155.582 8.93835C155.543 8.66984 155.445 8.22597 155.368 7.95198C155.286 7.68347 155.121 7.2396 154.99 6.96561C154.864 6.6971 154.639 6.28611 154.491 6.06144C154.343 5.83676 153.949 5.37645 153.614 5.04218C153.236 4.65859 152.82 4.31336 152.491 4.09417C152.206 3.90785 151.724 3.63386 151.422 3.48591C151.121 3.33796 150.628 3.1352 150.326 3.03108C150.025 2.92696 149.554 2.78996 149.285 2.72969C149.017 2.66393 148.507 2.57626 148.162 2.52694C147.817 2.48309 147.159 2.43378 146.704 2.41734C146.244 2.40638 145.866 2.4009 145.855 2.41185ZM145.762 4.80662C145.444 4.82306 144.951 4.88333 144.666 4.93265C144.381 4.98197 143.921 5.09705 143.652 5.1902C143.384 5.28336 142.973 5.44775 142.748 5.55735C142.524 5.66695 142.151 5.8971 141.926 6.06698C141.702 6.23686 141.428 6.47249 141.318 6.58756C141.208 6.70812 141.028 6.92731 140.912 7.07527C140.797 7.2287 140.638 7.48625 140.556 7.65065C140.474 7.81504 140.348 8.11096 140.282 8.30823C140.216 8.50551 140.129 8.86169 140.085 9.10281C140.041 9.34392 140.008 9.76587 140.008 10.0344C140.008 10.3084 140.041 10.7358 140.085 10.9934C140.129 11.2509 140.233 11.6455 140.315 11.8701C140.392 12.0948 140.545 12.4291 140.649 12.6099C140.754 12.7907 140.962 13.0867 141.11 13.2675C141.252 13.4483 141.537 13.7333 141.745 13.8977C141.948 14.0621 142.299 14.3032 142.529 14.4347C142.754 14.5607 143.148 14.7416 143.406 14.8347C143.663 14.9279 144.167 15.0704 144.529 15.1471C145.126 15.2786 145.302 15.2896 146.42 15.2896C147.395 15.295 147.757 15.2731 148.146 15.1964C148.414 15.1416 148.814 15.0484 149.023 14.9827C149.231 14.9224 149.593 14.7909 149.817 14.6977C150.042 14.6046 150.436 14.3854 150.694 14.2155C150.962 14.0456 151.335 13.7223 151.571 13.4757C151.795 13.2346 152.064 12.9058 152.157 12.7414C152.256 12.577 152.404 12.2866 152.48 12.0893C152.563 11.892 152.678 11.5468 152.738 11.3221C152.826 10.9879 152.848 10.7468 152.848 10.0618C152.842 9.33844 152.826 9.13569 152.711 8.69182C152.634 8.40687 152.48 7.98492 152.365 7.76025C152.256 7.53557 152.086 7.23966 151.993 7.10266C151.9 6.96567 151.658 6.69716 151.461 6.50537C151.264 6.30809 150.946 6.05054 150.749 5.91902C150.551 5.79298 150.239 5.61215 150.047 5.519C149.861 5.42584 149.516 5.28336 149.28 5.20664C149.05 5.12992 148.634 5.02032 148.365 4.96553C148.097 4.90525 147.647 4.84497 147.379 4.82853L147.298 4.82357L147.297 4.82355C147.043 4.80795 146.745 4.78964 146.611 4.78469C146.458 4.77374 146.08 4.7847 145.762 4.80662Z" fill="#D9D9D9"/>
<path fill-rule="evenodd" clip-rule="evenodd" d="M105.704 2.89253C105.507 2.93089 105.211 3.01857 105.047 3.08433C104.882 3.15008 104.636 3.26516 104.499 3.34188C104.362 3.4186 104.093 3.61039 103.896 3.76931C103.699 3.92275 103.419 4.20769 103.271 4.40497C103.123 4.59676 102.909 4.95295 102.794 5.19407C102.679 5.43518 102.548 5.81329 102.504 6.03248C102.427 6.37223 102.416 7.14489 102.416 11.7315V17.1018C102.416 17.1511 102.718 17.1675 103.731 17.1675H105.047L105.074 11.7151C109.743 11.7151 109.918 11.7206 110.225 11.8247C110.406 11.885 110.691 12.022 110.855 12.1261C111.08 12.274 111.606 12.8384 112.916 14.3509C113.886 15.4633 114.806 16.4771 114.971 16.5976C115.135 16.7237 115.365 16.8771 115.486 16.9374C115.606 16.9976 115.853 17.0744 116.034 17.1072C116.215 17.1401 116.91 17.1675 117.584 17.1675C118.253 17.1675 118.801 17.1511 118.801 17.1292C118.801 17.1018 117.738 15.8798 116.445 14.4002C115.146 12.9261 114.099 11.7041 114.121 11.6877C114.138 11.6712 114.379 11.6274 114.658 11.5945C114.932 11.5562 115.332 11.474 115.54 11.4082C115.749 11.3479 116.132 11.1945 116.39 11.0739C116.762 10.8931 116.943 10.7561 117.3 10.4054C117.595 10.104 117.804 9.84098 117.935 9.57794C118.045 9.36971 118.171 9.05736 118.22 8.89296C118.269 8.72857 118.335 8.44362 118.363 8.26278C118.395 8.08194 118.417 7.64904 118.423 7.30381C118.423 6.95857 118.395 6.50375 118.363 6.29004C118.33 6.0818 118.237 5.70917 118.154 5.46806C118.072 5.22694 117.897 4.8598 117.754 4.64608C117.612 4.43785 117.393 4.15837 117.261 4.03781C117.13 3.91177 116.883 3.71999 116.719 3.61039C116.554 3.50079 116.22 3.33639 115.979 3.24324C115.738 3.15008 115.321 3.01856 115.047 2.95829C114.576 2.84869 114.379 2.84321 110.307 2.83225C106.937 2.82129 105.989 2.83225 105.704 2.89253ZM106.822 5.32176C106.674 5.36012 106.466 5.43136 106.356 5.48615C106.252 5.54095 106.072 5.66151 105.951 5.76015C105.836 5.8533 105.666 6.03962 105.573 6.17662C105.48 6.30814 105.365 6.55473 105.304 6.7246C105.222 6.97668 105.206 7.20135 105.206 8.16032V9.30013C113.091 9.29465 114.078 9.28369 114.357 9.22341C114.554 9.17957 114.861 9.07545 115.037 8.98778C115.212 8.90558 115.442 8.74118 115.546 8.62611C115.645 8.51651 115.782 8.3028 115.842 8.16032C115.924 7.98497 115.968 7.73838 115.99 7.40958C116.012 7.03148 115.996 6.8342 115.919 6.58761C115.869 6.40677 115.765 6.16566 115.694 6.05058C115.623 5.94098 115.486 5.78755 115.387 5.71083C115.289 5.63959 115.108 5.53547 114.987 5.48615C114.867 5.43684 114.593 5.36012 114.373 5.32176C114.056 5.26148 113.267 5.24504 110.538 5.25052C108.006 5.25052 107.025 5.27244 106.822 5.32176Z" fill="#D9D9D9"/>
<path fill-rule="evenodd" clip-rule="evenodd" d="M81.7571 2.96541C81.5599 3.00376 81.264 3.09145 81.0996 3.1572C80.9352 3.22296 80.6886 3.33803 80.5516 3.41475C80.4146 3.49147 80.1461 3.68327 79.9488 3.84218C79.7515 3.99562 79.472 4.28057 79.3241 4.47784C79.1761 4.66964 78.9624 5.02583 78.8473 5.26694C78.7323 5.50806 78.6008 5.88616 78.5569 6.10535C78.4802 6.4451 78.4692 7.21777 78.4692 11.8044V17.1746C78.4692 17.224 78.7706 17.2404 79.7844 17.2404H81.0996L81.127 11.788C85.7958 11.788 85.9711 11.7934 86.278 11.8976C86.4589 11.9578 86.7438 12.0948 86.9082 12.1989C87.1329 12.3469 87.6589 12.9113 88.9686 14.4238C89.9385 15.5362 90.8592 16.5499 91.0236 16.6705C91.188 16.7965 91.4181 16.95 91.5387 17.0102C91.6592 17.0705 91.9058 17.1472 92.0867 17.1801C92.2675 17.213 92.9634 17.2404 93.6375 17.2404C94.306 17.2404 94.854 17.224 94.854 17.202C94.854 17.1746 93.7909 15.9526 92.4976 14.4731C91.1989 12.999 90.1523 11.777 90.1742 11.7606C90.1906 11.7441 90.4317 11.7003 90.7112 11.6674C90.9852 11.629 91.3852 11.5468 91.5935 11.4811C91.8017 11.4208 92.1853 11.2674 92.4428 11.1468C92.8155 10.966 92.9963 10.829 93.3525 10.4783C93.6484 10.1769 93.8566 9.91385 93.9882 9.65082C94.0978 9.44258 94.2238 9.13023 94.2731 8.96584C94.3224 8.80144 94.3882 8.51649 94.4156 8.33566C94.4485 8.15482 94.4704 7.72192 94.4759 7.37668C94.4759 7.03145 94.4485 6.57663 94.4156 6.36291C94.3827 6.15467 94.2895 5.78205 94.2074 5.54093C94.1252 5.29982 93.9498 4.93267 93.8073 4.71896C93.6649 4.51072 93.4457 4.23124 93.3141 4.11069C93.1826 3.98465 92.936 3.79286 92.7716 3.68327C92.6072 3.57367 92.273 3.40927 92.0319 3.31611C91.7907 3.22296 91.3743 3.09144 91.1003 3.03116C90.629 2.92157 90.4317 2.91608 86.3602 2.90512C82.9901 2.89417 82.0421 2.90513 81.7571 2.96541ZM82.7378 5.3162C82.5734 5.35456 82.3268 5.44223 82.1898 5.50799C82.0583 5.57923 81.8391 5.73815 81.7076 5.86418C81.5816 5.99022 81.4172 6.19298 81.3459 6.31353C81.2692 6.43409 81.1761 6.68068 81.1267 6.86152C81.061 7.10263 81.0391 7.45882 81.0391 8.24244V9.30005C89.2369 9.29457 89.9986 9.28361 90.289 9.21785C90.4754 9.16853 90.7548 9.0699 90.9028 8.99866C91.0562 8.92194 91.2645 8.77398 91.3686 8.66987C91.4782 8.56027 91.6042 8.39587 91.6535 8.29723C91.6974 8.1986 91.7741 7.95749 91.8124 7.76569C91.8563 7.55198 91.8727 7.26155 91.8563 7.05331C91.8398 6.85604 91.7741 6.56013 91.7138 6.39573C91.6426 6.19846 91.511 6.00666 91.3466 5.84226C91.1987 5.69431 90.974 5.54635 90.7932 5.47512C90.6288 5.41484 90.2836 5.33812 90.026 5.30524C89.7356 5.26688 88.3547 5.24496 86.2997 5.25044C84.0091 5.25044 82.9515 5.27236 82.7378 5.3162Z" fill="#D9D9D9"/>
<path fill-rule="evenodd" clip-rule="evenodd" d="M62.1558 2.97078C61.9968 3.01462 61.7612 3.1023 61.6352 3.16258C61.5036 3.22833 61.279 3.37081 61.131 3.4804C60.9831 3.59 60.7693 3.80372 60.6543 3.95167C60.5447 4.10511 60.1611 4.80653 59.7994 5.51343L59.6355 5.8338C59.2794 6.5297 58.8084 7.45 58.5117 8.03416C58.1609 8.71366 57.4212 10.1658 56.8622 11.2673C56.5653 11.8523 56.1711 12.6274 55.7853 13.3858C55.4448 14.0553 55.111 14.7117 54.8566 15.2128C54.3086 16.2813 53.8647 17.1745 53.8647 17.2019C53.8647 17.2239 54.3744 17.2348 55.0046 17.2239C56.1115 17.2129 56.1444 17.2074 56.4129 17.0649C56.5663 16.9882 56.7745 16.8238 56.8841 16.7087C57.0047 16.5827 57.2951 16.084 57.613 15.4484C58.0733 14.5223 58.1664 14.3689 58.3747 14.2264C58.5007 14.1332 58.6925 14.0346 58.7966 14.0072C58.9117 13.9743 60.5282 13.9579 62.8517 13.9688L66.715 13.9798C67.1698 14.2373 67.3561 14.3689 67.4219 14.4456C67.4876 14.5223 67.7726 15.0264 68.0575 15.5689C68.3425 16.1115 68.6494 16.6375 68.7425 16.7361C68.8302 16.8403 69.0439 16.9882 69.2083 17.0649C69.5042 17.2074 69.5426 17.2129 70.6879 17.2293C71.3345 17.2403 71.8989 17.2293 71.9373 17.2129C71.9811 17.1965 71.9537 17.0869 71.8167 16.8457C71.7674 16.7498 71.6769 16.5771 71.5714 16.3756C71.4659 16.1743 71.3454 15.9442 71.2359 15.7333L71.1259 15.5217C70.9231 15.131 70.6846 14.6718 70.5509 14.4182C70.392 14.1168 69.6522 12.6975 68.9069 11.2673C68.6183 10.7134 68.3223 10.1447 68.0546 9.63033C67.6309 8.81643 67.278 8.13838 67.1369 7.86976C66.9123 7.43138 66.6492 6.92723 66.5506 6.7464C66.4952 6.64479 66.3584 6.38229 66.188 6.05514C66.0551 5.80004 65.9018 5.50562 65.7505 5.21752C65.2409 4.23115 65.071 3.95715 64.8244 3.71056C64.66 3.54069 64.3751 3.32697 64.1943 3.22833C64.0134 3.13518 63.7175 3.01462 63.5367 2.97078C63.3558 2.92146 63.038 2.8831 62.8243 2.88858C62.6161 2.88858 62.3092 2.92694 62.1558 2.97078ZM62.4296 6.07793C62.2104 6.28068 62.0131 6.64783 60.8404 8.98225C60.1061 10.4508 59.5033 11.6783 59.5033 11.7112C59.5033 11.7441 60.665 11.766 62.8734 11.766C64.7311 11.766 66.2435 11.7441 66.2435 11.7222C66.2435 11.7002 65.6353 10.4728 64.8955 8.99869C64.1502 7.51913 63.4926 6.24781 63.4378 6.17657C63.3776 6.09985 63.2625 5.99573 63.1858 5.94093C63.1036 5.89161 62.9611 5.84778 62.8625 5.84778C62.7255 5.84778 62.6214 5.90257 62.4296 6.07793Z" fill="#D9D9D9"/>
<path fill-rule="evenodd" clip-rule="evenodd" d="M32.8428 3.23937C32.9689 3.15169 33.2045 3.03113 33.3525 2.98181C33.61 2.89414 34.0703 2.88866 38.92 2.88318C43.2436 2.88318 44.3012 2.89961 44.7286 2.95989C45.0136 3.00373 45.4246 3.09689 45.6328 3.16813C45.8465 3.23937 46.1917 3.39281 46.4 3.51336C46.6246 3.63391 46.9479 3.88599 47.1726 4.11066C47.4521 4.39013 47.6165 4.61481 47.759 4.91072C47.8686 5.13539 48.0001 5.46966 48.0439 5.6505C48.0987 5.85874 48.1316 6.20396 48.1261 6.58207C48.1261 6.93279 48.0932 7.32185 48.0439 7.51365C48.0001 7.69449 47.8631 8.03971 47.748 8.28083C47.6274 8.52194 47.4083 8.85621 47.2603 9.02061C47.1123 9.185 46.8384 9.40967 46.6575 9.51379C46.4712 9.61791 46.3178 9.71654 46.3178 9.73298C46.3178 9.74943 46.4219 9.79325 46.5479 9.8371C46.6794 9.87545 46.9096 9.97409 47.0575 10.0508C47.211 10.1221 47.4795 10.3029 47.6603 10.4399C47.8357 10.5769 48.0823 10.818 48.2028 10.9659C48.3179 11.1194 48.4987 11.4153 48.5974 11.6235C48.696 11.8372 48.8056 12.166 48.844 12.3633C48.8878 12.5935 48.8988 12.9551 48.8769 13.3771C48.8549 13.8812 48.8166 14.1278 48.707 14.4457C48.6303 14.6703 48.4385 15.0539 48.2796 15.295C48.0987 15.5635 47.8466 15.8485 47.6055 16.0512C47.3918 16.2321 47.0027 16.4787 46.7288 16.6102C46.4602 16.7417 46.0493 16.9006 45.8246 16.9609C45.5999 17.0266 45.167 17.1088 44.8656 17.1527C44.4163 17.2184 43.1997 17.2349 32.0154 17.2404L32.0044 11.1468C31.9935 7.79312 32.0044 4.87784 32.0209 4.66413C32.0428 4.43398 32.1085 4.1819 32.1798 4.03395C32.251 3.89695 32.3716 3.69968 32.4538 3.59556C32.536 3.49144 32.7113 3.33252 32.8428 3.23937ZM34.6854 8.74666V6.99311L34.6908 5.23408L43.9189 5.26695L44.3025 5.39847C44.6093 5.50259 44.7463 5.59027 44.9929 5.83686C45.2395 6.08345 45.3217 6.20949 45.3984 6.47252C45.4642 6.70267 45.4861 6.91639 45.4697 7.1849C45.4532 7.42601 45.3984 7.65617 45.3272 7.80413C45.2615 7.93016 45.1135 8.12744 45.0039 8.23703C44.8888 8.34663 44.6587 8.50006 44.1929 8.71926L34.6854 8.74666ZM34.6854 12.8839L34.6799 14.7799C41.8585 14.7799 43.6668 14.758 43.886 14.7196C44.0833 14.6922 44.3902 14.6155 44.571 14.5553C44.7518 14.495 45.0203 14.3635 45.1628 14.2539C45.3053 14.1497 45.4807 13.9744 45.5519 13.8593C45.6231 13.7497 45.7218 13.5196 45.7711 13.3552C45.8204 13.1853 45.8588 12.9551 45.8588 12.8346C45.8588 12.714 45.8259 12.4894 45.782 12.3414C45.7382 12.188 45.6231 11.9578 45.5245 11.8208C45.4204 11.6893 45.2395 11.5085 45.119 11.4263C44.9984 11.3441 44.7518 11.218 44.571 11.1523L44.2422 11.0262L34.6854 10.9934V12.8839Z" fill="#D9D9D9"/>
<path d="M167.982 2.50511C168.404 2.46675 168.925 2.43387 169.133 2.42839C169.341 2.41743 169.676 2.40647 169.873 2.40099C170.07 2.39551 170.662 2.41743 171.188 2.44483C171.714 2.47771 172.394 2.53799 172.695 2.58731C172.997 2.63115 173.468 2.7243 173.736 2.80102C174.005 2.87226 174.405 3.00377 174.613 3.09693C174.821 3.18461 175.134 3.33256 175.298 3.4312C175.462 3.52984 175.72 3.7052 175.873 3.82027C176.021 3.94083 176.279 4.18742 176.438 4.37921C176.597 4.56553 176.849 4.96556 177.002 5.26695C177.15 5.56834 177.326 6.01769 177.397 6.26428C177.463 6.51087 177.506 6.72459 177.49 6.73555C177.474 6.75199 177.139 6.77938 176.75 6.79582C176.317 6.81774 175.917 6.80679 175.736 6.77391C175.572 6.74103 175.298 6.65335 175.134 6.57663C174.936 6.48347 174.64 6.25332 174.268 5.89165C173.912 5.54642 173.594 5.29435 173.391 5.19023C173.221 5.10804 172.92 4.982 172.723 4.92172C172.525 4.85596 172.229 4.77924 172.065 4.74637C171.901 4.71349 171.588 4.66965 171.38 4.64773C171.166 4.62581 170.481 4.60937 169.846 4.61485C169.21 4.61485 168.437 4.64773 168.119 4.68608C167.802 4.72444 167.308 4.8176 167.023 4.88884C166.739 4.96008 166.328 5.10255 166.119 5.20667C165.906 5.30531 165.626 5.48615 165.495 5.60122C165.363 5.72178 165.193 5.95193 165.116 6.11633C165.012 6.34648 164.974 6.5054 164.974 6.77391C164.974 6.97118 165.018 7.25614 165.067 7.40409C165.122 7.57397 165.243 7.76576 165.39 7.91371C165.522 8.04523 165.747 8.20963 165.9 8.28634C166.048 8.35759 166.404 8.46718 166.678 8.52746C166.958 8.58774 167.467 8.65897 167.802 8.68089C168.141 8.70829 169.172 8.73569 170.092 8.74117C171.013 8.74665 171.961 8.76309 172.202 8.77953L172.203 8.77957C172.444 8.79603 172.926 8.82888 173.271 8.86173C173.616 8.89461 174.147 8.96585 174.449 9.02612C174.75 9.08092 175.172 9.18503 175.38 9.25627C175.588 9.32752 175.95 9.48095 176.175 9.60151C176.432 9.7385 176.717 9.94674 176.942 10.1714C177.139 10.3687 177.38 10.6756 177.474 10.8564C177.572 11.0372 177.698 11.3715 177.758 11.5962C177.813 11.8208 177.879 12.2538 177.901 12.5551C177.934 12.9716 177.917 13.2182 177.846 13.5963C177.797 13.8703 177.698 14.2375 177.632 14.4183C177.561 14.5991 177.413 14.895 177.298 15.0759C177.183 15.2567 176.953 15.5471 176.783 15.7225C176.613 15.8978 176.317 16.1499 176.12 16.276C175.923 16.4075 175.588 16.5993 175.38 16.7089C175.172 16.813 174.772 16.9719 174.503 17.0651C174.235 17.1527 173.769 17.2788 173.473 17.3445C173.183 17.4103 172.777 17.4815 172.569 17.5144C172.366 17.5418 171.994 17.5856 171.736 17.6076C171.479 17.6295 170.509 17.6514 169.572 17.6459C168.339 17.6459 167.659 17.6185 167.106 17.5528C166.684 17.498 166.092 17.3993 165.791 17.3281C165.489 17.2514 165.067 17.1198 164.859 17.0322C164.651 16.939 164.316 16.7746 164.119 16.665C163.922 16.5554 163.653 16.3801 163.516 16.2814C163.379 16.1828 163.144 15.9691 162.99 15.8102C162.837 15.6458 162.618 15.3663 162.503 15.1855C162.388 15.0046 162.234 14.7142 162.163 14.5443C162.092 14.369 161.988 14.0237 161.927 13.7771C161.867 13.5251 161.818 13.2292 161.818 12.9113L162.788 12.9278C163.659 12.9387 163.801 12.9552 164.092 13.0702C164.371 13.1798 164.514 13.2949 165.023 13.8155C165.363 14.1553 165.769 14.5114 165.955 14.6265C166.136 14.7361 166.541 14.906 166.859 15.0101C167.177 15.1142 167.67 15.2403 167.955 15.2896C168.24 15.3389 168.859 15.4047 169.325 15.4321C169.878 15.4649 170.459 15.4649 170.996 15.4266C171.446 15.3992 172.059 15.3225 172.35 15.2677C172.646 15.2074 173.101 15.0814 173.364 14.9827C173.632 14.8841 173.994 14.7087 174.169 14.5827C174.35 14.4621 174.575 14.2649 174.673 14.1443C174.777 14.0237 174.903 13.8046 174.964 13.6511C175.024 13.5032 175.09 13.2566 175.106 13.1031C175.134 12.9168 175.117 12.7305 175.062 12.5277C175.002 12.3195 174.909 12.1551 174.756 11.9962C174.63 11.8647 174.427 11.7058 174.295 11.6455C174.169 11.5797 173.928 11.4811 173.764 11.4208C173.599 11.366 173.238 11.2783 172.969 11.2345C172.662 11.1797 171.988 11.1413 171.188 11.1249C170.481 11.1139 169.21 11.092 168.366 11.0811C167.33 11.0646 166.656 11.0263 166.284 10.966C165.982 10.9167 165.538 10.829 165.297 10.7687C165.056 10.703 164.711 10.5934 164.53 10.5166C164.349 10.4399 164.026 10.2755 163.818 10.144C163.61 10.0125 163.308 9.77138 163.149 9.61246C162.996 9.45355 162.777 9.17408 162.667 8.99325C162.557 8.81241 162.409 8.46718 162.333 8.22607C162.218 7.86988 162.185 7.64521 162.163 7.0205C162.141 6.4232 162.157 6.16565 162.223 5.86974C162.278 5.6615 162.398 5.30531 162.503 5.09159C162.623 4.83952 162.82 4.56004 163.034 4.32989C163.226 4.12714 163.516 3.86959 163.681 3.76C163.845 3.6504 164.13 3.48052 164.311 3.39284C164.492 3.29969 164.864 3.14625 165.133 3.05309C165.401 2.95445 165.982 2.8065 166.421 2.71882C166.859 2.63663 167.561 2.53799 167.982 2.50511Z" fill="#D9D9D9"/>
<path d="M127.103 3.17909C127.196 3.10784 127.355 3.0147 127.459 2.97085C127.563 2.92701 127.81 2.88866 128.007 2.88318C128.265 2.88318 128.44 2.92153 128.637 3.00921C128.796 3.08593 128.982 3.22293 129.076 3.34897C129.169 3.46404 129.267 3.6668 129.295 3.78735C129.333 3.93531 129.339 6.17656 129.295 16.4513L129.147 16.6814C129.059 16.8075 128.889 16.9719 128.763 17.0486C128.615 17.1363 128.402 17.202 128.199 17.2239C128.007 17.2459 127.771 17.2294 127.623 17.1911C127.486 17.1582 127.267 17.0376 127.136 16.9225C126.999 16.8129 126.845 16.6211 126.791 16.5006C126.697 16.2924 126.692 15.9362 126.692 3.81475L126.818 3.5572C126.884 3.4202 127.01 3.24484 127.103 3.17909Z" fill="#D9D9D9"/>
<path d="M1.99219 0.274528C2.10938 0.219832 2.33984 0.137789 2.5 0.0909077L2.79297 0.00495796L9.73437 0.00105115C16.332 -0.00285566 16.6797 0.00105115 16.6562 0.0674669C16.6445 0.102615 16.1176 1.82033 15.4851 3.88208L15.4844 3.88442C14.8516 5.94721 14.3398 7.63886 14.3477 7.64277C14.3516 7.65058 15.6211 5.93549 19.9805 0.0127716L20 17.2457L19.918 17.5778C19.875 17.7614 19.7852 18.031 19.7187 18.1833C19.6562 18.3357 19.5273 18.5701 19.4336 18.7108C19.3438 18.8514 19.1367 19.0858 18.9766 19.2382C18.8008 19.4062 18.5664 19.5742 18.375 19.6757C18.207 19.7656 17.9609 19.8711 17.832 19.9101C17.6133 19.9766 17.3516 19.9805 10.7422 20L10.7695 19.914C10.7812 19.8633 11.5742 17.1363 12.5234 13.8468C13.4727 10.5612 14.2422 7.86545 14.2344 7.86155C14.2266 7.85373 12.0781 10.5807 4.70703 19.9961L0 20V3.14212L0.113281 2.69284C0.171875 2.44671 0.28125 2.12245 0.347656 1.97008C0.417969 1.81772 0.550781 1.58331 0.644531 1.44266C0.738281 1.30202 0.925781 1.07542 1.0625 0.938685C1.19531 0.801947 1.41406 0.618327 1.54297 0.532377C1.67187 0.446427 1.875 0.329223 1.99219 0.274528Z" fill="#D9D9D9"/>
</svg>
